<svg xmlns="http://www.w3.org/2000/svg" xmlns:xlink="http://www.w3.org/1999/xlink" width="1900" height="965"><defs><marker id="a" markerWidth="10" markerHeight="10" refX="9" refY="5" orient="auto"><path d="M0 0L10 5L0 10z" fill="#465d76"/></marker></defs><rect width="100%" height="100%" fill="#f8fafc"/><text x="35" y="40" font-family="Segoe UI" font-size="29" font-weight="700" fill="#17304c">Connected implementation • separate packet and script revision loops</text><text x="35" y="70" font-family="Segoe UI" font-size="16" fill="#455e78">Legend: yellow human • blue prompt • green flow • purple service/storage • red stop. Proposed design; not executable BPMN or deployment proof.</text>
<polyline points="330,205 400,205" fill="none" stroke="#465d76" stroke-width="2.2" marker-end="url(#a)"/><rect x="338.0" y="180" width="54" height="20" fill="white"/><text x="365.0" y="195" text-anchor="middle" font-family="Segoe UI" font-size="13">write</text>
<polyline points="700,205 770,205" fill="none" stroke="#465d76" stroke-width="2.2" marker-end="url(#a)"/><rect x="708.0" y="180" width="54" height="20" fill="white"/><text x="735.0" y="195" text-anchor="middle" font-family="Segoe UI" font-size="13">assign</text>
<polyline points="1070,205 1140,205" fill="none" stroke="#465d76" stroke-width="2.2" marker-end="url(#a)"/><rect x="1078.0" y="180" width="54" height="20" fill="white"/><text x="1105.0" y="195" text-anchor="middle" font-family="Segoe UI" font-size="13">findings</text>
<polyline points="1440,205 1510,205" fill="none" stroke="#465d76" stroke-width="2.2" marker-end="url(#a)"/><rect x="1436.0" y="180" width="78.0" height="20" fill="white"/><text x="1475.0" y="195" text-anchor="middle" font-family="Segoe UI" font-size="13">needs rework</text>
<polyline points="1660,149 1660,97 920,97 920,149" fill="none" stroke="#465d76" stroke-width="2.2" marker-end="url(#a)"/><rect x="1221.75" y="72" width="136.5" height="20" fill="white"/><text x="1290.0" y="87" text-anchor="middle" font-family="Segoe UI" font-size="13">recheck min 2 / max 5</text>
<polyline points="1290,261 1290,368 8,368 8,505 30,505" fill="none" stroke="#465d76" stroke-width="2.2" marker-end="url(#a)"/><rect x="590.5" y="343" width="117.0" height="20" fill="white"/><text x="649.0" y="358" text-anchor="middle" font-family="Segoe UI" font-size="13">packet gate passes</text>
<polyline points="330,505 400,505" fill="none" stroke="#465d76" stroke-width="2.2" marker-end="url(#a)"/><rect x="338.0" y="480" width="54" height="20" fill="white"/><text x="365.0" y="495" text-anchor="middle" font-family="Segoe UI" font-size="13">write</text>
<polyline points="700,505 770,505" fill="none" stroke="#465d76" stroke-width="2.2" marker-end="url(#a)"/><rect x="708.0" y="480" width="54" height="20" fill="white"/><text x="735.0" y="495" text-anchor="middle" font-family="Segoe UI" font-size="13">assign</text>
<polyline points="1070,505 1140,505" fill="none" stroke="#465d76" stroke-width="2.2" marker-end="url(#a)"/><rect x="1078.0" y="480" width="54" height="20" fill="white"/><text x="1105.0" y="495" text-anchor="middle" font-family="Segoe UI" font-size="13">findings</text>
<polyline points="1440,505 1510,505" fill="none" stroke="#465d76" stroke-width="2.2" marker-end="url(#a)"/><rect x="1436.0" y="480" width="78.0" height="20" fill="white"/><text x="1475.0" y="495" text-anchor="middle" font-family="Segoe UI" font-size="13">needs rework</text>
<polyline points="1660,449 1660,397 920,397 920,449" fill="none" stroke="#465d76" stroke-width="2.2" marker-end="url(#a)"/><rect x="1221.75" y="372" width="136.5" height="20" fill="white"/><text x="1290.0" y="387" text-anchor="middle" font-family="Segoe UI" font-size="13">recheck min 2 / max 5</text>
<polyline points="1290,561 1290,668 8,668 8,805 30,805" fill="none" stroke="#465d76" stroke-width="2.2" marker-end="url(#a)"/><rect x="590.5" y="643" width="117.0" height="20" fill="white"/><text x="649.0" y="658" text-anchor="middle" font-family="Segoe UI" font-size="13">script gate passes</text>
<polyline points="330,805 400,805" fill="none" stroke="#465d76" stroke-width="2.2" marker-end="url(#a)"/><rect x="332.5" y="780" width="65.0" height="20" fill="white"/><text x="365.0" y="795" text-anchor="middle" font-family="Segoe UI" font-size="13">exact pair</text>
<polyline points="700,805 770,805" fill="none" stroke="#465d76" stroke-width="2.2" marker-end="url(#a)"/><rect x="708.0" y="780" width="54" height="20" fill="white"/><text x="735.0" y="795" text-anchor="middle" font-family="Segoe UI" font-size="13">approved</text>
<polyline points="1660,261 1660,368 1118,368 1118,805 1140,805" fill="none" stroke="#465d76" stroke-width="2.2" marker-end="url(#a)"/><rect x="1362.0" y="343" width="54" height="20" fill="white"/><text x="1389.0" y="358" text-anchor="middle" font-family="Segoe UI" font-size="13">cap</text>
<polyline points="1660,561 1660,650 1118,650 1118,805 1140,805" fill="none" stroke="#465d76" stroke-width="2.2" marker-end="url(#a)"/><rect x="1362.0" y="625" width="54" height="20" fill="white"/><text x="1389.0" y="640" text-anchor="middle" font-family="Segoe UI" font-size="13">cap</text>
<a xlink:href="P04-packet-writer.md"><rect x="30" y="149" width="300" height="112" rx="12" fill="#e5efff" stroke="#8197ad"/>
<text x="180" y="174" text-anchor="middle" font-family="Segoe UI" font-size="18" font-weight="700" fill="#19334f">P04</text>
<text x="180" y="192" text-anchor="middle" font-family="Segoe UI" font-size="15" font-weight="400" fill="#19334f">Packet writer</text>
<text x="180" y="210" text-anchor="middle" font-family="Segoe UI" font-size="12" font-weight="400" fill="#19334f">P04-packet-writer.md</text>
</a>
<a xlink:href="08-QUALITY-CONTRACT.md"><rect x="400" y="149" width="300" height="112" rx="12" fill="#e9e0ff" stroke="#8197ad"/>
<text x="550" y="174" text-anchor="middle" font-family="Segoe UI" font-size="18" font-weight="700" fill="#19334f">E0P</text>
<text x="550" y="192" text-anchor="middle" font-family="Segoe UI" font-size="15" font-weight="400" fill="#19334f">Packet A0 frozen</text>
<text x="550" y="210" text-anchor="middle" font-family="Segoe UI" font-size="12" font-weight="400" fill="#19334f">08-QUALITY-CONTRACT.md</text>
</a>
<a xlink:href="P06-independent-evaluator.md"><rect x="770" y="149" width="300" height="112" rx="12" fill="#e5efff" stroke="#8197ad"/>
<text x="920" y="174" text-anchor="middle" font-family="Segoe UI" font-size="18" font-weight="700" fill="#19334f">P06P</text>
<text x="920" y="192" text-anchor="middle" font-family="Segoe UI" font-size="15" font-weight="400" fill="#19334f">Packet independent evaluation</text>
<text x="920" y="210" text-anchor="middle" font-family="Segoe UI" font-size="12" font-weight="400" fill="#19334f">P06-independent-evaluator.md</text>
</a>
<a xlink:href="02-FLOWS-AND-STATE.md"><rect x="1140" y="149" width="300" height="112" rx="12" fill="#dcf4ec" stroke="#8197ad"/>
<text x="1290" y="174" text-anchor="middle" font-family="Segoe UI" font-size="18" font-weight="700" fill="#19334f">F06</text>
<text x="1290" y="192" text-anchor="middle" font-family="Segoe UI" font-size="15" font-weight="400" fill="#19334f">Packet quality gate</text>
<text x="1290" y="210" text-anchor="middle" font-family="Segoe UI" font-size="12" font-weight="400" fill="#19334f">02-FLOWS-AND-STATE.md</text>
</a>
<a xlink:href="P04-packet-writer.md"><rect x="1510" y="149" width="300" height="112" rx="12" fill="#e5efff" stroke="#8197ad"/>
<text x="1660" y="174" text-anchor="middle" font-family="Segoe UI" font-size="18" font-weight="700" fill="#19334f">RPKT</text>
<text x="1660" y="192" text-anchor="middle" font-family="Segoe UI" font-size="15" font-weight="400" fill="#19334f">Packet revision A1…A5</text>
<text x="1660" y="210" text-anchor="middle" font-family="Segoe UI" font-size="12" font-weight="400" fill="#19334f">P04-packet-writer.md</text>
</a>
<a xlink:href="P05-script-writer.md"><rect x="30" y="449" width="300" height="112" rx="12" fill="#e5efff" stroke="#8197ad"/>
<text x="180" y="474" text-anchor="middle" font-family="Segoe UI" font-size="18" font-weight="700" fill="#19334f">P05</text>
<text x="180" y="492" text-anchor="middle" font-family="Segoe UI" font-size="15" font-weight="400" fill="#19334f">Script writer after packet gate</text>
<text x="180" y="510" text-anchor="middle" font-family="Segoe UI" font-size="12" font-weight="400" fill="#19334f">P05-script-writer.md</text>
</a>
<a xlink:href="08-QUALITY-CONTRACT.md"><rect x="400" y="449" width="300" height="112" rx="12" fill="#e9e0ff" stroke="#8197ad"/>
<text x="550" y="474" text-anchor="middle" font-family="Segoe UI" font-size="18" font-weight="700" fill="#19334f">E0S</text>
<text x="550" y="492" text-anchor="middle" font-family="Segoe UI" font-size="15" font-weight="400" fill="#19334f">Script A0 frozen</text>
<text x="550" y="510" text-anchor="middle" font-family="Segoe UI" font-size="12" font-weight="400" fill="#19334f">08-QUALITY-CONTRACT.md</text>
</a>
<a xlink:href="P06-independent-evaluator.md"><rect x="770" y="449" width="300" height="112" rx="12" fill="#e5efff" stroke="#8197ad"/>
<text x="920" y="474" text-anchor="middle" font-family="Segoe UI" font-size="18" font-weight="700" fill="#19334f">P06S</text>
<text x="920" y="492" text-anchor="middle" font-family="Segoe UI" font-size="15" font-weight="400" fill="#19334f">Script independent evaluation</text>
<text x="920" y="510" text-anchor="middle" font-family="Segoe UI" font-size="12" font-weight="400" fill="#19334f">P06-independent-evaluator.md</text>
</a>
<a xlink:href="02-FLOWS-AND-STATE.md"><rect x="1140" y="449" width="300" height="112" rx="12" fill="#dcf4ec" stroke="#8197ad"/>
<text x="1290" y="474" text-anchor="middle" font-family="Segoe UI" font-size="18" font-weight="700" fill="#19334f">F07</text>
<text x="1290" y="492" text-anchor="middle" font-family="Segoe UI" font-size="15" font-weight="400" fill="#19334f">Script quality gate</text>
<text x="1290" y="510" text-anchor="middle" font-family="Segoe UI" font-size="12" font-weight="400" fill="#19334f">02-FLOWS-AND-STATE.md</text>
</a>
<a xlink:href="P05-script-writer.md"><rect x="1510" y="449" width="300" height="112" rx="12" fill="#e5efff" stroke="#8197ad"/>
<text x="1660" y="474" text-anchor="middle" font-family="Segoe UI" font-size="18" font-weight="700" fill="#19334f">RSCR</text>
<text x="1660" y="492" text-anchor="middle" font-family="Segoe UI" font-size="15" font-weight="400" fill="#19334f">Script revision A1…A5</text>
<text x="1660" y="510" text-anchor="middle" font-family="Segoe UI" font-size="12" font-weight="400" fill="#19334f">P05-script-writer.md</text>
</a>
<a xlink:href="02-FLOWS-AND-STATE.md"><rect x="30" y="749" width="300" height="112" rx="12" fill="#dcf4ec" stroke="#8197ad"/>
<text x="180" y="774" text-anchor="middle" font-family="Segoe UI" font-size="18" font-weight="700" fill="#19334f">F08</text>
<text x="180" y="792" text-anchor="middle" font-family="Segoe UI" font-size="15" font-weight="400" fill="#19334f">Exact pair consistency</text>
<text x="180" y="810" text-anchor="middle" font-family="Segoe UI" font-size="12" font-weight="400" fill="#19334f">02-FLOWS-AND-STATE.md</text>
</a>
<a xlink:href="04-ADMIN-SCREENS.md"><rect x="400" y="749" width="300" height="112" rx="12" fill="#fff0d2" stroke="#8197ad"/>
<text x="550" y="774" text-anchor="middle" font-family="Segoe UI" font-size="18" font-weight="700" fill="#19334f">H05</text>
<text x="550" y="792" text-anchor="middle" font-family="Segoe UI" font-size="15" font-weight="400" fill="#19334f">Human approves exact scope</text>
<text x="550" y="810" text-anchor="middle" font-family="Segoe UI" font-size="12" font-weight="400" fill="#19334f">04-ADMIN-SCREENS.md</text>
</a>
<a xlink:href="11-CASE-STORAGE.md"><rect x="770" y="749" width="300" height="112" rx="12" fill="#e9e0ff" stroke="#8197ad"/>
<text x="920" y="774" text-anchor="middle" font-family="Segoe UI" font-size="18" font-weight="700" fill="#19334f">SAVE</text>
<text x="920" y="792" text-anchor="middle" font-family="Segoe UI" font-size="15" font-weight="400" fill="#19334f">Saved output + audit transition</text>
<text x="920" y="810" text-anchor="middle" font-family="Segoe UI" font-size="12" font-weight="400" fill="#19334f">11-CASE-STORAGE.md</text>
</a>
<a xlink:href="08-QUALITY-CONTRACT.md"><rect x="1140" y="749" width="300" height="112" rx="12" fill="#ffe1e1" stroke="#8197ad"/>
<text x="1290" y="774" text-anchor="middle" font-family="Segoe UI" font-size="18" font-weight="700" fill="#19334f">STOP</text>
<text x="1290" y="792" text-anchor="middle" font-family="Segoe UI" font-size="15" font-weight="400" fill="#19334f">Unresolved / fifth / hard gate</text>
<text x="1290" y="810" text-anchor="middle" font-family="Segoe UI" font-size="12" font-weight="400" fill="#19334f">08-QUALITY-CONTRACT.md</text>
</a>
</svg>